<svg height='100px' width='100px'  fill="#b5171d" xmlns="http://www.w3.org/2000/svg" xmlns:xlink="http://www.w3.org/1999/xlink" version="1.1" x="0px" y="0px" viewBox="0 0 32 32" style="enable-background:new 0 0 32 32;" xml:space="preserve"><style type="text/css">
	.st0{fill-rule:evenodd;clip-rule:evenodd;}
</style><g><path d="M16,0c8.8,0,16,7.2,16,16s-7.2,16-16,16C7.2,32,0,24.8,0,16S7.2,0,16,0L16,0z M16,2.2C8.4,2.2,2.2,8.4,2.2,16   S8.4,29.8,16,29.8S29.8,23.6,29.8,16S23.6,2.2,16,2.2L16,2.2z"></path><path class="st0" d="M16,8.1L16,8.1c0.6,0,1.1,0.5,1.1,1.1v5.7h5.7c0.6,0,1.1,0.5,1.1,1.1l0,0c0,0.6-0.5,1.1-1.1,1.1h-5.7v5.7   c0,0.6-0.5,1.1-1.1,1.1l0,0c-0.6,0-1.1-0.5-1.1-1.1v-5.7H9.2c-0.6,0-1.1-0.5-1.1-1.1l0,0c0-0.6,0.5-1.1,1.1-1.1h5.7V9.2   C14.9,8.6,15.4,8.1,16,8.1L16,8.1z"></path></g></svg>