<svg height='100px' width='100px'  fill="#b5171d" xmlns="http://www.w3.org/2000/svg" xmlns:xlink="http://www.w3.org/1999/xlink" version="1.1" x="0px" y="0px" viewBox="0 0 100 100" style="enable-background:new 0 0 100 100;" xml:space="preserve"><style type="text/css">
	.st0{fill:#b5171d;}
	.st1{fill:none;stroke:#b5171d;stroke-width:5;stroke-linecap:round;stroke-linejoin:round;stroke-miterlimit:10;}
</style><path d="M76.6,58.4c-3.4,0-6.6,1-9.3,2.6c-2.7-1.1-5.3-2-7.2-2.4c-0.3-0.1-0.5-0.3-0.5-0.6c0-0.2,0.2-0.5,0.3-0.6  c4.3-2.8,11.5-10.2,11.5-28.2c0-5.8-2-11.6-5.4-16C63.1,9.5,57.6,5,48.3,5c-9.5,0-15,4.5-17.9,8.3c-3.3,4.3-5.2,10.1-5.2,16  c0,18,7.2,25.4,11.4,28.1c0.1,0.1,0.3,0.6,0.4,0.9c0,0.1-0.2,0.3-0.5,0.3c-4.2,0.9-11.9,4.1-18.3,8.3C9.7,72.4,5.2,78.4,5.2,84.4  C5.2,93.2,21.7,95,48.2,95c6.9,0,15.7-0.1,23.2-0.8c1.7,0.5,3.4,0.8,5.2,0.8c10.1,0,18.3-8.2,18.3-18.3  C94.9,66.6,86.7,58.4,76.6,58.4z M48.2,90c-8.5,0-19.2-0.2-27.2-1.3c-7.9-1.2-10.7-3-10.7-4.3c0-4.1,3.8-8.9,10.7-13.4  c5.9-3.8,12.9-6.7,16.7-7.6c2.8-0.6,4.7-3.1,4.4-5.8c-0.2-1.4-1-3.4-2.6-4.4c-3.4-2.2-9.2-8.3-9.2-24C30.2,22.6,34,10,48.3,10  c13.3,0,18.1,11.5,18.1,19.3c0,15.6-5.8,21.7-9.2,24c-1.5,1-2.6,2.9-2.6,4.8c0,2.6,1.8,4.9,4.4,5.5c1.1,0.2,2.4,0.6,3.9,1.2  c-2.8,3.2-4.6,7.4-4.6,12.1c0,5.1,2.1,9.7,5.5,13C58.4,90,52.8,90,48.2,90z M76.6,90c-7.3,0-13.3-6-13.3-13.3  c0-7.3,6-13.3,13.3-13.3c7.3,0,13.3,6,13.3,13.3C89.9,84,83.9,90,76.6,90z"></path><path d="M82.7,74h-3.4v-3.4c0-1.4-1.1-2.5-2.5-2.5s-2.5,1.1-2.5,2.5V74h-3.4c-1.4,0-2.5,1.1-2.5,2.5s1.1,2.5,2.5,2.5h3.4v3.4  c0,1.4,1.1,2.5,2.5,2.5s2.5-1.1,2.5-2.5V79h3.4c1.4,0,2.5-1.1,2.5-2.5S84.1,74,82.7,74z"></path></svg>