<svg height='100px' width='100px'  fill="#b5171d" xmlns="http://www.w3.org/2000/svg" xmlns:xlink="http://www.w3.org/1999/xlink" version="1.1" x="0px" y="0px" viewBox="0 0 100 100" style="enable-background:new 0 0 100 100;" xml:space="preserve"><style type="text/css">
	.st0{fill:#b5171d;}
	.st1{fill:none;stroke:#b5171d;stroke-width:5;stroke-linecap:round;stroke-linejoin:round;stroke-miterlimit:10;}
</style><path d="M26.5,57.7V16c0-1.4-1.1-2.5-2.5-2.5s-2.5,1.1-2.5,2.5v41.7c-4.9,1.1-8.5,5.5-8.5,10.7s3.6,9.6,8.5,10.7v6.2  c0,1.4,1.1,2.5,2.5,2.5s2.5-1.1,2.5-2.5v-6.2c4.9-1.1,8.5-5.5,8.5-10.7S31.4,58.8,26.5,57.7z M24,74.4c-3.3,0-6-2.7-6-6s2.7-6,6-6  s6,2.7,6,6S27.3,74.4,24,74.4z"></path><path d="M53.5,37.7V16c0-1.4-1.1-2.5-2.5-2.5s-2.5,1.1-2.5,2.5v21.7c-4.9,1.1-8.5,5.5-8.5,10.7s3.6,9.6,8.5,10.7v26.2  c0,1.4,1.1,2.5,2.5,2.5s2.5-1.1,2.5-2.5V59.1c4.9-1.1,8.5-5.5,8.5-10.7S58.4,38.8,53.5,37.7z M51,54.4c-3.3,0-6-2.7-6-6s2.7-6,6-6  s6,2.7,6,6S54.3,54.4,51,54.4z"></path><path d="M89,27.7c0-5.2-3.6-9.6-8.5-10.7v-2.5c0-1.4-1.1-2.5-2.5-2.5s-2.5,1.1-2.5,2.5V17c-4.9,1.1-8.5,5.5-8.5,10.7  s3.6,9.6,8.5,10.7v46.8c0,1.4,1.1,2.5,2.5,2.5s2.5-1.1,2.5-2.5V38.4C85.4,37.3,89,32.9,89,27.7z M78,33.7c-3.3,0-6-2.7-6-6  c0-3.1,2.4-5.7,5.4-6c0.2,0,0.4,0.1,0.6,0.1s0.4,0,0.6-0.1c3,0.3,5.4,2.9,5.4,6C84,31,81.3,33.7,78,33.7z"></path></svg>