<svg height='100px' width='100px'  fill="#b5171d" xmlns="http://www.w3.org/2000/svg" xmlns:xlink="http://www.w3.org/1999/xlink" version="1.1" x="0px" y="0px" viewBox="0 0 100 100" style="enable-background:new 0 0 100 100;" xml:space="preserve"><style type="text/css">
	.st0{fill:#b5171d;}
	.st1{fill:none;stroke:#b5171d;stroke-width:5;stroke-linecap:round;stroke-linejoin:round;stroke-miterlimit:10;}
</style><path d="M83.9,18.5H72.8l-5.5-6.4c-1-1.2-2.5-1.9-4.1-1.9H37.6c-1.6,0-3.1,0.7-4.1,1.9L28,18.5H16.9c-6.3,0-11.5,5.2-11.5,11.5v50  c0,6.3,5.2,11.5,11.5,11.5h67c6.3,0,11.5-5.2,11.5-11.5V30C95.4,23.6,90.2,18.5,83.9,18.5z M37.3,15.4c0.1-0.1,0.2-0.1,0.3-0.1h25.7  c0.1,0,0.2,0,0.3,0.1l2.7,3.1H34.6L37.3,15.4z M90.4,80c0,3.6-2.9,6.5-6.5,6.5h-67c-3.6,0-6.5-2.9-6.5-6.5V30c0-3.6,2.9-6.5,6.5-6.5  h12.2h42.5h12.2c3.6,0,6.5,2.9,6.5,6.5V80z"></path><path d="M50.4,31.2c-13.1,0-23.8,10.7-23.8,23.8s10.7,23.8,23.8,23.8S74.1,68.1,74.1,55S63.5,31.2,50.4,31.2z M50.4,73.7  c-10.3,0-18.8-8.4-18.8-18.8s8.4-18.8,18.8-18.8S69.1,44.6,69.1,55S60.7,73.7,50.4,73.7z"></path><path d="M84.4,27h-8.5c-1.4,0-2.5,1.1-2.5,2.5s1.1,2.5,2.5,2.5h8.5c1.4,0,2.5-1.1,2.5-2.5S85.8,27,84.4,27z"></path></svg>