<svg height='100px' width='100px'  fill="#ffffff" xmlns="http://www.w3.org/2000/svg" viewBox="0 0 32 32" x="0px" y="0px"><title>Artboard 40</title><g data-name="Layer 25"><path d="M22,30H10a4,4,0,0,1-4-4V7A1,1,0,0,1,7,6H25a1,1,0,0,1,1,1V26A4,4,0,0,1,22,30ZM8,8V26a2,2,0,0,0,2,2H22a2,2,0,0,0,2-2V8Z"></path><path d="M29,8H3A1,1,0,0,1,3,6H29a1,1,0,0,1,0,2Z"></path><path d="M20,8H12a1,1,0,0,1-1-1V5a3,3,0,0,1,3-3h4a3,3,0,0,1,3,3V7A1,1,0,0,1,20,8ZM13,6h6V5a1,1,0,0,0-1-1H14a1,1,0,0,0-1,1Z"></path><path d="M12,25a1,1,0,0,1-1-1V11a1,1,0,0,1,2,0V24A1,1,0,0,1,12,25Z"></path><path d="M20,25a1,1,0,0,1-1-1V11a1,1,0,0,1,2,0V24A1,1,0,0,1,20,25Z"></path></g></svg>