<svg height='100px' width='100px'  fill="#b5171d" xmlns="http://www.w3.org/2000/svg" viewBox="0 0 83.38 83.38" x="0px" y="0px"><title>Edit</title><g data-name="Layer 2"><g data-name="Layer 1"><path d="M80.74,9.91,73.47,2.64a9,9,0,0,0-12.73,0L10.61,52.77A20.84,20.84,0,0,0,5.54,61L.27,76.79A5,5,0,0,0,5,83.38a5.08,5.08,0,0,0,1.61-.27L22.4,77.84a21.1,21.1,0,0,0,8.21-5.07L32.34,71h0l3.53-3.54h0L73.34,30h0l3.53-3.54h0l3.87-3.86A9,9,0,0,0,80.74,9.91ZM27.07,69.23a16.12,16.12,0,0,1-6.25,3.87L5,78.36l5.27-15.8a16.14,16.14,0,0,1,3.86-6.26l1.73-1.72L28.8,67.5ZM32.33,64,19.41,51,56.87,13.58,69.8,26.5ZM77.2,19.1,73.33,23,60.41,10l3.86-3.87a4,4,0,0,1,5.66,0l7.27,7.27a4,4,0,0,1,0,5.66Z"></path></g></g></svg>