<svg height='100px' width='100px'  fill="#b5171d" xmlns="http://www.w3.org/2000/svg" xmlns:xlink="http://www.w3.org/1999/xlink" version="1.1" x="0px" y="0px" viewBox="0 0 100 100" style="enable-background:new 0 0 100 100;" xml:space="preserve"><style type="text/css">
	.st0{fill:#b5171d;}
	.st1{fill:none;stroke:#b5171d;stroke-width:5;stroke-linecap:round;stroke-linejoin:round;stroke-miterlimit:10;}
</style><path d="M89.1,51.2c-1.4,0-2.5,1.1-2.5,2.5v27.2c0,3.6-2.9,6.5-6.5,6.5H16.5c-3.6,0-6.5-2.9-6.5-6.5V38.2c0-3.6,2.9-6.5,6.5-6.5  h16.8c1.4,0,2.5-1.1,2.5-2.5s-1.1-2.5-2.5-2.5H16.5C10.2,26.7,5,31.9,5,38.2v42.7c0,6.3,5.2,11.5,11.5,11.5h63.6  c6.3,0,11.5-5.2,11.5-11.5V53.7C91.6,52.3,90.5,51.2,89.1,51.2z"></path><path d="M94.3,27.4L76.2,9.4c-1-1-2.6-1-3.5,0c-1,1-1,2.6,0,3.5l14,14H65.2c-11.3,0-20.5,9.2-20.5,20.5v12.2c0,1.4,1.1,2.5,2.5,2.5  s2.5-1.1,2.5-2.5V47.4c0-8.5,7-15.5,15.5-15.5h21.1L72.7,45.5c-1,1-1,2.6,0,3.5c0.5,0.5,1.1,0.7,1.8,0.7s1.3-0.2,1.8-0.7L94.3,31  c0.5-0.5,0.7-1.1,0.7-1.8S94.7,27.9,94.3,27.4z"></path></svg>