<svg height='100px' width='100px'  fill="#b5171d" xmlns="http://www.w3.org/2000/svg" xmlns:xlink="http://www.w3.org/1999/xlink" version="1.1" x="0px" y="0px" viewBox="0 0 100 100" style="enable-background:new 0 0 100 100;" xml:space="preserve"><style type="text/css">
	.st0{fill:#b5171d;}
	.st1{fill:none;stroke:#b5171d;stroke-width:5;stroke-linecap:round;stroke-linejoin:round;stroke-miterlimit:10;}
</style><path d="M91.7,25.3C90.9,24,90,22.8,89,21.7c-0.1-0.1-0.1-0.2-0.2-0.2l0,0l-1.1-1c-0.1,0-0.1-0.1-0.2-0.1c-0.1-0.1-0.1-0.1-0.2-0.2  l-1.2-1.1l0,0c0,0,0,0-0.1,0c-6.6-5.3-16.2-6.8-23.7-3.6c-5.9,2.5-9.9,7.3-12.4,11.1C47.1,22,43.1,18.2,38.7,16  c-2.8-1.4-6-2.1-9-2.1c-9.2-0.3-17.8,4.6-22,12.5c-4.3,8-3.5,18,2,25.9c1.8,2.6,4,4.8,6,7l0.6,0.6c1.7,1.8,3.7,3.8,6.1,6.2  c3.8,3.8,8,7.9,13.1,12.9c2.8,2.8,5.7,5.5,8.5,8.2c1.3,1.3,3.2,2.7,6,2.7c0.1,0,0.3,0,0.4,0c2.6-0.1,4.3-1.6,5.7-2.9  c8.7-8.3,15.7-15.2,22-21.6c0.7-0.7,1.5-1.5,2.2-2.2c3.8-3.8,7.7-7.7,10.7-12.2C96.1,43.4,96.3,33,91.7,25.3z M86.9,48.4  c-2.7,4.1-6.4,7.8-10,11.4c-0.8,0.7-1.5,1.5-2.2,2.2c-6.3,6.4-13.3,13.2-21.9,21.5c-1,1-1.7,1.5-2.5,1.5c-0.8,0-1.5-0.2-2.7-1.3  c-2.9-2.7-5.7-5.5-8.5-8.2c-5.1-4.9-9.2-9-13-12.8c-2.4-2.4-4.3-4.3-6-6.2l-0.6-0.6c-2-2.1-4-4.1-5.5-6.4  c-4.4-6.4-5.1-14.4-1.7-20.8c3.2-6.1,9.7-9.9,16.8-9.9c0.2,0,0.5,0,0.7,0c2.4,0,4.8,0.6,6.9,1.6c4.6,2.3,8.8,6.9,11.2,12.4  c0.4,0.9,1.3,1.5,2.3,1.5s1.9-0.6,2.3-1.5c0.4-0.9,0.9-1.8,1.6-2.9c2-3.3,5.5-7.7,10.5-9.8c6.3-2.7,14.4-1.1,19.7,3.8  c1.3,1.2,2.4,2.6,3.3,4C91.1,34,90.9,42.2,86.9,48.4z"></path></svg>