<svg height='100px' width='100px'  fill="#b5171d" xmlns="http://www.w3.org/2000/svg" xmlns:xlink="http://www.w3.org/1999/xlink" version="1.1" x="0px" y="0px" viewBox="0 0 100 100" style="enable-background:new 0 0 100 100;" xml:space="preserve"><style type="text/css">
	.st0{fill:#b5171d;}
	.st1{fill:none;stroke:#b5171d;stroke-width:5;stroke-linecap:round;stroke-linejoin:round;stroke-miterlimit:10;}
</style><path d="M64.9,34.2c0-8.2-6.7-14.9-14.9-14.9S35.1,26,35.1,34.2S41.8,49.1,50,49.1S64.9,42.4,64.9,34.2z M40.1,34.2  c0-5.5,4.4-9.9,9.9-9.9s9.9,4.4,9.9,9.9s-4.4,9.9-9.9,9.9S40.1,39.7,40.1,34.2z"></path><path d="M74.9,55.4c3.9-6.8,5.9-13.5,5.9-20C80.8,18.4,67,4.5,50,4.5S19.2,18.4,19.2,35.4c0,7.2,2.4,14,5.9,20  C12.4,59.3,5,65.7,5,73.2c0,11.9,19.8,21.3,45,21.3s45-9.4,45-21.3C95,65.8,87.5,59.3,74.9,55.4z M50,9.5  c14.2,0,25.8,11.6,25.8,25.8C75.8,54.4,55.6,71,50,75.2C44.4,71,24.2,54.4,24.2,35.4C24.2,21.1,35.8,9.5,50,9.5z M50,89.5  c-18.9,0-40-6.7-40-16.3c0-5.2,7.1-10.4,17.9-13.5c8.4,12,19.9,20.1,20.7,20.6c0.4,0.3,0.9,0.4,1.4,0.4c0.5,0,1-0.1,1.4-0.4  c0.3-0.2,7.4-5.1,14.6-13c2.3-2.5,4.3-5.1,6.1-7.6C83,62.9,90,68.1,90,73.2C90,82.9,68.9,89.5,50,89.5z"></path></svg>