<svg height='100px' width='100px'  fill="#b5171d" xmlns="http://www.w3.org/2000/svg" xmlns:xlink="http://www.w3.org/1999/xlink" version="1.1" x="0px" y="0px" viewBox="0 0 100 100" style="enable-background:new 0 0 100 100;" xml:space="preserve"><style type="text/css">
	.st0{fill:#b5171d;}
	.st1{fill:none;stroke:#b5171d;stroke-width:5;stroke-linecap:round;stroke-linejoin:round;stroke-miterlimit:10;}
</style><path d="M71.2,38.6H28.8c-1.4,0-2.5,1.1-2.5,2.5s1.1,2.5,2.5,2.5h42.5c1.4,0,2.5-1.1,2.5-2.5S72.6,38.6,71.2,38.6z"></path><path d="M71.2,58.2H28.8c-1.4,0-2.5,1.1-2.5,2.5s1.1,2.5,2.5,2.5h42.5c1.4,0,2.5-1.1,2.5-2.5S72.6,58.2,71.2,58.2z"></path><path d="M83.5,15.9h-67C10.2,15.9,5,21.1,5,27.4V73c0,6.3,5.2,11.5,11.5,11.5H77L90.2,92c0.5,0.3,1,0.4,1.6,0.4  c0.6,0,1.1-0.1,1.6-0.4c1-0.6,1.6-1.6,1.6-2.8V27.4C95,21.1,89.8,15.9,83.5,15.9z M90,86.1l-11-6.3c-0.5-0.3-1-0.4-1.6-0.4h-61  c-3.6,0-6.5-2.9-6.5-6.5V27.4c0-3.6,2.9-6.5,6.5-6.5h67c3.6,0,6.5,2.9,6.5,6.5V86.1z"></path></svg>