<svg height='100px' width='100px'  fill="#b5171d" xmlns="http://www.w3.org/2000/svg" xmlns:xlink="http://www.w3.org/1999/xlink" version="1.1" x="0px" y="0px" viewBox="0 0 100 100" style="enable-background:new 0 0 100 100;" xml:space="preserve"><style type="text/css">
	.st0{fill:#b5171d;}
	.st1{fill:none;stroke:#b5171d;stroke-width:5;stroke-linecap:round;stroke-linejoin:round;stroke-miterlimit:10;}
</style><path d="M27.3,41.5c-4.7,0-8.5,3.8-8.5,8.5s3.8,8.5,8.5,8.5c4.7,0,8.5-3.8,8.5-8.5S32,41.5,27.3,41.5z M27.3,53.5  c-1.9,0-3.5-1.6-3.5-3.5s1.6-3.5,3.5-3.5s3.5,1.6,3.5,3.5S29.2,53.5,27.3,53.5z"></path><path d="M49.9,41.5c-4.7,0-8.5,3.8-8.5,8.5s3.8,8.5,8.5,8.5c4.7,0,8.5-3.8,8.5-8.5S54.6,41.5,49.9,41.5z M49.9,53.5  c-1.9,0-3.5-1.6-3.5-3.5s1.6-3.5,3.5-3.5s3.5,1.6,3.5,3.5S51.9,53.5,49.9,53.5z"></path><path d="M72.6,41.5c-4.7,0-8.5,3.8-8.5,8.5s3.8,8.5,8.5,8.5c4.7,0,8.5-3.8,8.5-8.5S77.3,41.5,72.6,41.5z M72.6,53.5  c-1.9,0-3.5-1.6-3.5-3.5s1.6-3.5,3.5-3.5s3.5,1.6,3.5,3.5S74.5,53.5,72.6,53.5z"></path><path d="M49.9,4.9c-24.8,0-45,20.2-45,45s20.2,45,45,45s45-20.2,45-45S74.8,4.9,49.9,4.9z M49.9,89.9c-22.1,0-40-17.9-40-40  s17.9-40,40-40c22.1,0,40,17.9,40,40S72,89.9,49.9,89.9z"></path></svg>