<svg height='100px' width='100px'  fill="#b5171d" xmlns="http://www.w3.org/2000/svg" viewBox="0 0 32 32" x="0px" y="0px"><title>Artboard 31</title><g data-name="Layer 34"><path d="M28.8,23.85,24.15,19.2A3.48,3.48,0,0,0,20,18.61l-1.14-1.14a9.52,9.52,0,1,0-1.41,1.41L18.61,20a3.48,3.48,0,0,0,.59,4.13l4.65,4.65a3.5,3.5,0,1,0,4.95-4.95ZM4,11.5A7.5,7.5,0,1,1,11.5,19,7.5,7.5,0,0,1,4,11.5ZM27.39,27.39a1.51,1.51,0,0,1-2.12,0l-4.66-4.66a1.5,1.5,0,0,1,2.12-2.12l4.66,4.66A1.51,1.51,0,0,1,27.39,27.39Z"></path></g></svg>