<svg height='100px' width='100px'  fill="#b5171d" xmlns="http://www.w3.org/2000/svg" xmlns:xlink="http://www.w3.org/1999/xlink" version="1.1" x="0px" y="0px" viewBox="0 0 100 100" style="enable-background:new 0 0 100 100;" xml:space="preserve"><style type="text/css">
	.st0{fill:#b5171d;}
	.st1{fill:none;stroke:#b5171d;stroke-width:5;stroke-linecap:round;stroke-linejoin:round;stroke-miterlimit:10;}
</style><path d="M54.5,95h-8.4c-3,0-5.5-2.5-5.5-5.5v-5.9c-2.5-0.7-4.9-1.6-7.2-2.9L29.2,85c-2.1,2.1-5.6,2.1-7.8,0l-5.9-5.9  c-2.1-2.1-2.1-5.6,0-7.8l4-4c-1.3-2.3-2.4-4.7-3.2-7.2h-5.8c-3,0-5.5-2.5-5.5-5.5v-8.4c0-3,2.5-5.5,5.5-5.5h5.4  c0.7-2.6,1.7-5.1,3-7.5L15,29.2c-2.1-2.1-2.1-5.6,0-7.8l5.9-5.9c1-1,2.4-1.6,3.9-1.6c1.5,0,2.9,0.6,3.9,1.6l3.7,3.7  c2.4-1.4,4.9-2.5,7.6-3.3v-5.4c0-3,2.5-5.5,5.5-5.5h8.4c3,0,5.5,2.5,5.5,5.5v5.2c2.7,0.7,5.2,1.8,7.6,3.1l3.8-3.8  c2.1-2.1,5.6-2.1,7.8,0l5.9,5.9c2.1,2.1,2.1,5.6,0,7.8l-3.8,3.8c1.3,2.4,2.4,4.9,3.1,7.5h5.6c3,0,5.5,2.5,5.5,5.5v8.4  c0,3-2.5,5.5-5.5,5.5h-5.6c-0.7,2.5-1.7,5-3,7.3l4.2,4.2c2.1,2.1,2.1,5.6,0,7.8l-5.9,5.9c-1,1-2.4,1.6-3.9,1.6  c-1.5,0-2.9-0.6-3.9-1.6l-4.1-4.1c-2.3,1.3-4.6,2.3-7.1,3v6.1C60,92.5,57.6,95,54.5,95z M33,75.1c0.4,0,0.9,0.1,1.3,0.4  c2.9,1.8,6,3,9.3,3.7c1.2,0.2,2,1.3,2,2.4v7.8c0,0.3,0.2,0.5,0.5,0.5h8.4c0.3,0,0.5-0.2,0.5-0.5v-8c0-1.2,0.8-2.2,1.9-2.4  c3.3-0.8,6.4-2.1,9.2-3.9c1-0.6,2.3-0.5,3.1,0.3l5.5,5.5c0.2,0.2,0.5,0.2,0.7,0l5.9-5.9c0.2-0.2,0.2-0.5,0-0.7l-5.5-5.5  c-0.8-0.8-1-2.1-0.3-3.1c1.8-2.9,3.1-6.1,3.9-9.4c0.3-1.1,1.3-2,2.4-2h7.6c0.3,0,0.5-0.2,0.5-0.5v-8.4c0-0.3-0.2-0.5-0.5-0.5h-7.6  c-1.2,0-2.2-0.8-2.4-2c-0.8-3.4-2.1-6.6-4-9.6c-0.6-1-0.5-2.3,0.3-3.1l5.2-5.2c0.2-0.2,0.2-0.5,0-0.7l-5.9-5.9  c-0.2-0.2-0.5-0.2-0.7,0l-5.2,5.2c-0.8,0.8-2.1,1-3.1,0.3c-3-1.9-6.3-3.2-9.7-4c-1.2-0.2-2-1.3-2-2.4v-7.2c0-0.3-0.2-0.5-0.5-0.5  h-8.4c-0.3,0-0.5,0.2-0.5,0.5v7.3c0,1.2-0.8,2.2-1.9,2.4c-3.4,0.8-6.7,2.2-9.6,4.2c-1,0.7-2.3,0.5-3.1-0.3L25.2,19  c-0.2-0.2-0.5-0.2-0.7,0l-5.9,5.9c-0.2,0.2-0.2,0.5,0,0.7l5.3,5.3c0.8,0.8,1,2.1,0.4,3.1c-1.8,3-3.1,6.2-3.8,9.6  c-0.2,1.2-1.3,2-2.5,2h-7.4c-0.3,0-0.5,0.2-0.5,0.5v8.4c0,0.3,0.2,0.5,0.5,0.5h7.7c1.1,0,2.2,0.8,2.4,1.9c0.8,3.3,2.2,6.4,4.1,9.3  c0.7,1,0.5,2.3-0.3,3.1L19,74.8c-0.2,0.2-0.2,0.5,0,0.7l5.9,5.9c0.2,0.2,0.5,0.2,0.7,0l5.6-5.6C31.7,75.4,32.4,75.1,33,75.1z"></path><path d="M50,67.5c-9.6,0-17.5-7.9-17.5-17.5S40.4,32.5,50,32.5S67.5,40.4,67.5,50S59.6,67.5,50,67.5z M50,37.5  c-6.9,0-12.5,5.6-12.5,12.5S43.1,62.5,50,62.5S62.5,56.9,62.5,50S56.9,37.5,50,37.5z"></path></svg>