<svg height='100px' width='100px'  fill="#b5171d" xmlns="http://www.w3.org/2000/svg" xmlns:xlink="http://www.w3.org/1999/xlink" version="1.1" x="0px" y="0px" viewBox="0 0 100 100" style="enable-background:new 0 0 100 100;" xml:space="preserve"><style type="text/css">
	.st0{fill:#b5171d;}
	.st1{fill:none;stroke:#b5171d;stroke-width:5;stroke-linecap:round;stroke-linejoin:round;stroke-miterlimit:10;}
</style><path d="M47.8,20.1c-6.9,0-12.5,5.6-12.5,12.5c0,6.9,5.6,12.5,12.5,12.5s12.5-5.6,12.5-12.5C60.3,25.7,54.7,20.1,47.8,20.1z   M47.8,40.1c-4.1,0-7.5-3.4-7.5-7.5c0-4.1,3.4-7.5,7.5-7.5c4.1,0,7.5,3.4,7.5,7.5C55.3,36.7,52,40.1,47.8,40.1z"></path><path d="M71.7,5.1H24c-6.3,0-11.5,5.2-11.5,11.5v66.9c0,4.3,2.4,8.2,6.1,10.2c3.8,2,8.3,1.7,11.9-0.7l13.7-9.4  c2.2-1.5,5.2-1.5,7.4,0l13.7,9.4c2,1.3,4.2,2,6.5,2c1.8,0,3.7-0.4,5.4-1.3c3.8-2,6.1-5.9,6.1-10.2V16.6C83.2,10.2,78,5.1,71.7,5.1z   M78.2,83.4c0,2.5-1.3,4.6-3.5,5.8c-2.2,1.1-4.7,1-6.7-0.4l-13.7-9.4c-3.9-2.7-9.1-2.7-13,0l-13.7,9.4c-2,1.4-4.5,1.5-6.7,0.4  c-2.2-1.1-3.5-3.3-3.5-5.8V16.6c0-3.6,2.9-6.5,6.5-6.5h47.7c3.6,0,6.5,2.9,6.5,6.5V83.4z"></path></svg>