<svg height='100px' width='100px'  fill="#b5171d" xmlns="http://www.w3.org/2000/svg" xmlns:xlink="http://www.w3.org/1999/xlink" version="1.1" x="0px" y="0px" viewBox="0 0 100 100" style="enable-background:new 0 0 100 100;" xml:space="preserve"><style type="text/css">
	.st0{fill:#b5171d;}
	.st1{fill:none;stroke:#b5171d;stroke-width:5;stroke-linecap:round;stroke-linejoin:round;stroke-miterlimit:10;}
</style><path d="M80.1,66.8c-6.4-4.2-14.1-7.3-18.3-8.3c-0.3-0.1-0.5-0.3-0.5-0.6c0-0.2,0.2-0.5,0.3-0.6c4.3-2.8,11.5-10.2,11.5-28.2  c0-5.8-2-11.6-5.4-16C64.8,9.5,59.3,5,50,5c-9.5,0-15,4.5-17.9,8.3c-3.3,4.3-5.2,10.1-5.2,16c0,18,7.2,25.4,11.4,28.1  c0.1,0.1,0.3,0.6,0.4,0.9c0,0.1-0.2,0.3-0.5,0.3c-4.2,0.9-11.9,4.1-18.3,8.3C11.4,72.4,6.9,78.4,6.9,84.4C6.9,93.2,23.4,95,49.9,95  c26.7,0,43.2-1.8,43.2-10.6C93.1,78.4,88.6,72.4,80.1,66.8z M77.3,88.7c-8,1.2-18.8,1.3-27.4,1.3c-8.5,0-19.2-0.2-27.2-1.3  c-7.9-1.2-10.7-3-10.7-4.3c0-4.1,3.8-8.9,10.7-13.4c5.9-3.8,12.9-6.7,16.7-7.6c2.8-0.6,4.7-3.1,4.4-5.8c-0.2-1.4-1-3.4-2.6-4.4  c-3.4-2.2-9.2-8.3-9.2-24C31.9,22.6,35.7,10,50,10c13.3,0,18.1,11.5,18.1,19.3c0,15.6-5.8,21.7-9.2,24c-1.5,1-2.6,2.9-2.6,4.8  c0,2.6,1.8,4.9,4.4,5.5c3.7,0.8,10.8,3.7,16.7,7.6c6.9,4.5,10.7,9.3,10.7,13.4C88.1,85.6,85.2,87.5,77.3,88.7z"></path></svg>